<?xml version="1.0" encoding="utf-8"?>
<!-- Generator: Adobe Illustrator 19.0.0, SVG Export Plug-In . SVG Version: 6.00 Build 0)  -->
<svg version="1.1" id="Слой_1" xmlns="http://www.w3.org/2000/svg" xmlns:xlink="http://www.w3.org/1999/xlink" x="0px" y="0px"
	 viewBox="-285 408.9 24 24" style="enable-background:new -285 408.9 24 24;" xml:space="preserve">
<style type="text/css">
	.st0{fill:#EE3B45;}
</style>
<path class="st0" d="M-268.5,414.9v11.5c0,2.2-1.8,4-4,4s-4-1.8-4-4v-12.5c0-1.4,1.1-2.5,2.5-2.5s2.5,1.1,2.5,2.5v10.5
	c0,0.5-0.5,1-1,1s-1-0.5-1-1v-9.5h-1.5v9.5c0,1.4,1.1,2.5,2.5,2.5s2.5-1.1,2.5-2.5v-10.5c0-2.2-1.8-4-4-4s-4,1.8-4,4v12.5
	c0,3,2.5,5.5,5.5,5.5s5.5-2.5,5.5-5.5v-11.5H-268.5z"/>
</svg>
