<?xml version="1.0" encoding="UTF-8"?> <svg xmlns="http://www.w3.org/2000/svg" xmlns:xlink="http://www.w3.org/1999/xlink" width="259px" height="116px" viewBox="0 0 259 116"> <!-- Generator: Sketch 57.1 (83088) - https://sketch.com --> <title>imh_logo</title> <desc>Created with Sketch.</desc> <g id="Page-1" stroke="none" stroke-width="1" fill="none" fill-rule="evenodd"> <g id="Desktop" transform="translate(-406.000000, -74.000000)"> <g id="imh_logo" transform="translate(386.000000, 54.000000)"> <rect id="Rectangle" x="0" y="0" width="299.514563" height="155.174757"></rect> <path d="M153.961143,50.0485437 C153.957238,46.5754728 156.046863,43.442381 159.254812,42.1114798 C162.462762,40.7805786 166.156611,41.5142458 168.612445,43.9700793 C171.068279,46.4259129 171.801946,50.1197627 170.471044,53.3277121 C169.140143,56.5356614 166.007051,58.6252858 162.533981,58.6213813 C160.258747,58.6265302 158.075212,57.7249861 156.466375,56.116149 C154.857538,54.5073119 153.955994,52.323777 153.961143,50.0485437 Z M154.932039,102.601942 L154.932039,61.592233 L170.213592,61.592233 L170.213592,102.601942 L154.932039,102.601942 Z" id="Shape" fill="#FFFFFF" fill-rule="nonzero"></path> <path d="M181.805825,90.7184466 L181.805825,74.8349515 L175.009709,74.8349515 L175.009709,61.592233 L181.805825,61.592233 L181.805825,50.3883495 L197.087379,50.3883495 L197.087379,61.592233 L205.407767,61.592233 L205.407767,74.8349515 L197.087379,74.8349515 L197.087379,86.3009709 C197.087379,88.4174757 198.436893,90.1262136 200.475728,90.1262136 C201.54761,90.16917 202.609228,89.9029227 203.533981,89.3592233 L206.252427,100.902913 C204.640777,102.349515 201.067961,103.621359 195.893204,103.621359 C186.815534,103.621359 181.805825,99.2912621 181.805825,90.7184466 Z" id="Path" fill="#FFFFFF" fill-rule="nonzero"></path> <path d="M263.485437,102.601942 L263.485437,78.6407767 C263.485437,76.1747573 262.213592,74.0582524 258.815534,74.0582524 C256.334808,74.0991732 254.01384,75.2901489 252.533981,77.2815534 L252.533981,102.582524 L237.252427,102.582524 L237.252427,78.6407767 C237.252427,76.1747573 236.058252,74.0582524 232.572816,74.0582524 C230.121164,74.118681 227.834944,75.3083754 226.378641,77.2815534 L226.378641,102.582524 L211.097087,102.582524 L211.097087,61.592233 L226.378641,61.592233 L226.378641,66.2621359 C228.165049,63.9708738 233.349515,60.5725418 239.970874,60.5725418 C245.796117,60.5725418 249.902913,62.6990291 251.76699,67.7961165 C255.115844,63.2274747 260.452026,60.5413316 266.116505,60.5725418 C273.679612,60.5725418 278.737864,64.3980583 278.737864,72.8834951 L278.737864,102.601942 L263.485437,102.601942 Z" id="Path" fill="#FFFFFF" fill-rule="nonzero"></path> <path d="M97.4174757,101.669914 C94.9844043,101.664544 93.0158514,99.6887524 93.0194174,97.2556777 C93.0229931,94.8226029 94.9973369,92.8525983 97.4304136,92.8543796 C99.8634903,92.8561633 101.834951,94.8290586 101.834951,97.2621359 C101.834951,98.4328325 101.369233,99.5554391 100.540516,100.382335 C99.7117981,101.209232 98.5881695,101.672482 97.4174757,101.669914 L97.4174757,101.669914 Z" id="Path" fill="#FFFFFF" fill-rule="nonzero"></path> <path d="M107.76699,101.669914 C105.983337,101.673832 104.373128,100.602408 103.687829,98.9556535 C103.00253,97.3088987 103.37724,95.4114493 104.637085,94.1488229 C105.89693,92.8861965 107.793549,92.5073038 109.441811,93.1889696 C111.090073,93.8706354 112.165049,95.478478 112.165049,97.2621359 C112.165049,99.6926919 110.19754,101.664549 107.76699,101.669914 L107.76699,101.669914 Z" id="Path" fill="#FFFFFF" fill-rule="nonzero"></path> <path d="M97.4174757,112.019428 C95.629891,112.019428 94.0185082,110.942076 93.3353397,109.290186 C92.6521712,107.638297 93.0318945,105.737502 94.2972976,104.47488 C95.5627006,103.212258 97.4643259,102.836718 99.1147086,103.523519 C100.765091,104.210321 101.83888,105.82407 101.834962,107.61165 C101.834962,108.782347 101.369233,109.904954 100.540516,110.73185 C99.7117981,111.558746 98.5881695,112.021996 97.4174757,112.019428 L97.4174757,112.019428 Z" id="Path" fill="#FFFFFF" fill-rule="nonzero"></path> <path d="M66.3592233,112.019417 C64.5716386,112.019417 62.9602558,110.942076 62.2770873,109.290186 C61.5939187,107.638297 61.9736421,105.737502 63.2390451,104.47488 C64.5044482,103.212258 66.4060735,102.836718 68.0564562,103.523519 C69.7068389,104.210321 70.7806278,105.82407 70.7767098,107.61165 C70.7713454,110.047563 68.7951413,112.019417 66.3592233,112.019417 Z" id="Path" fill="#FFFFFF" fill-rule="nonzero"></path> <path d="M76.6990291,112.019428 C74.9105661,112.023344 73.2962039,110.948502 72.6099737,109.296926 C71.9237436,107.64535 72.3010666,105.742963 73.565704,104.478325 C74.8303414,103.213688 76.7327286,102.836365 78.3843047,103.522595 C80.0358809,104.208825 81.1107225,105.823187 81.1068068,107.61165 C81.1014566,110.043778 79.1311565,112.014078 76.6990291,112.019428 L76.6990291,112.019428 Z" id="Path" fill="#FFFFFF" fill-rule="nonzero"></path> <path d="M87.0679612,112.019428 C85.2794981,112.023344 83.665136,110.948502 82.9789058,109.296926 C82.2926756,107.64535 82.6699986,105.742963 83.934636,104.478325 C85.1992734,103.213688 87.1016606,102.836365 88.7532368,103.522595 C90.4048129,104.208825 91.4796545,105.823187 91.4757389,107.61165 C91.4703887,110.043778 89.5000885,112.014078 87.0679612,112.019428 L87.0679612,112.019428 Z" id="Path" fill="#FFFFFF" fill-rule="nonzero"></path> <path d="M97.4174757,49.9126321 C94.9777713,49.9126321 93,47.9348501 93,45.4951456 C93,43.0554412 94.9777713,41.0776699 97.4174757,41.0776699 C99.8571802,41.0776699 101.834962,43.0554412 101.834962,45.4951456 C101.837537,46.6675236 101.372956,47.7926286 100.543957,48.621627 C99.7149586,49.4506255 98.5898537,49.9152065 97.4174757,49.9126321 Z" id="Path" fill="#FFFFFF" fill-rule="nonzero"></path> <path d="M97.4174757,60.2621467 C94.9856692,60.2567736 93.0176419,58.2829516 93.0194282,55.8511398 C93.0212168,53.4193281 94.9921436,51.4484013 97.4239554,51.4466126 C99.8557671,51.4448264 101.829589,53.4128537 101.834962,55.8446602 C101.837537,57.0170382 101.372956,58.1421431 100.543957,58.9711416 C99.7149586,59.80014 98.5898537,60.2647211 97.4174757,60.2621467 Z" id="Path" fill="#FFFFFF" fill-rule="nonzero"></path> <path d="M107.76699,60.2621468 C105.332656,60.267492 103.354896,58.2984186 103.349525,55.8640848 C103.344176,53.4297509 105.313246,51.4519872 107.74758,51.4466124 C110.181914,51.4412594 112.159681,53.4103264 112.165049,55.8446602 C112.165049,58.2768017 110.199108,60.2514452 107.76699,60.2621468 L107.76699,60.2621468 Z" id="Path" fill="#FFFFFF" fill-rule="nonzero"></path> <path d="M45.631068,70.6116505 C43.1967255,70.6116505 41.223301,68.638226 41.223301,66.2038835 C41.223301,63.769541 43.1967255,61.7961165 45.631068,61.7961165 C48.0654105,61.7961165 50.038835,63.769541 50.038835,66.2038835 C50.0334955,68.6360109 48.0631953,70.606311 45.631068,70.6116505 Z" id="Path" fill="#FFFFFF" fill-rule="nonzero"></path> <path d="M45.631068,80.961165 C43.1967255,80.961165 41.223301,78.9877405 41.223301,76.5533981 C41.223301,74.1190556 43.1967255,72.1456311 45.631068,72.1456311 C48.0654105,72.1456311 50.038835,74.1190556 50.038835,76.5533981 C50.038835,78.9877405 48.0654105,80.961165 45.631068,80.961165 Z" id="Path" fill="#FFFFFF" fill-rule="nonzero"></path> <path d="M45.631068,91.3106796 C43.1967255,91.3106796 41.223301,89.3372551 41.223301,86.9029126 C41.223301,84.4685701 43.1967255,82.4951456 45.631068,82.4951456 C48.0654105,82.4951456 50.038835,84.4685701 50.038835,86.9029126 C50.0334955,89.33504 48.0631953,91.3053401 45.631068,91.3106796 Z" id="Path" fill="#FFFFFF" fill-rule="nonzero"></path> <path d="M56.0194175,101.669914 C54.2357639,101.673832 52.6255548,100.602408 51.9402561,98.9556535 C51.2549575,97.3088987 51.6296671,95.4114493 52.8895124,94.1488229 C54.1493576,92.8861965 56.0459762,92.5073038 57.694238,93.1889696 C59.3424999,93.8706354 60.4174757,95.478478 60.4174757,97.2621359 C60.4121621,99.6904886 58.4477525,101.659235 56.0194175,101.669914 Z" id="Path" fill="#FFFFFF" fill-rule="nonzero"></path> <path d="M45.631068,101.669903 C43.1967255,101.669903 41.223301,99.6964784 41.223301,97.2621359 C41.223301,94.8277934 43.1967255,92.8543689 45.631068,92.8543689 C48.0654105,92.8543689 50.038835,94.8277934 50.038835,97.2621359 C50.0334955,99.6942633 48.0631953,101.664563 45.631068,101.669903 Z" id="Path" fill="#FFFFFF" fill-rule="nonzero"></path> <path d="M56.0194175,112.01946 C54.2300866,112.027278 52.6127498,110.954942 51.9234558,109.303687 C51.2341619,107.652433 51.6090771,105.748458 52.8729415,104.481803 C54.136806,103.215149 56.0399502,102.836036 57.6927204,103.521687 C59.3454906,104.207338 60.4213911,105.822307 60.4174864,107.61165 C60.4121621,110.040003 58.4477525,112.008749 56.0194175,112.01946 L56.0194175,112.01946 Z" id="Path" fill="#FFFFFF" fill-rule="nonzero"></path> <path d="M56.0194175,49.9126643 C54.2309693,49.9204827 52.6142475,48.849198 51.924384,47.1991383 C51.2345204,45.5490787 51.6076529,43.6458676 52.8695003,42.3784491 C54.1313478,41.1110306 56.0328966,40.7295175 57.6859793,41.4121055 C59.339062,42.0946934 60.4174757,43.7066802 60.4174757,45.4951456 C60.4174757,47.9272872 58.4515355,49.9019306 56.0194175,49.9126643 Z" id="Path" fill="#FFFFFF" fill-rule="nonzero"></path> <path d="M56.0194175,60.2621468 C53.5850837,60.267492 51.6073231,58.2984186 51.6019522,55.8640848 C51.5966031,53.4297509 53.5656734,51.4519872 56.0000072,51.4466124 C58.434341,51.4412594 60.4121079,53.4103264 60.4174757,55.8446602 C60.4174757,58.2768017 58.4515355,60.2514452 56.0194175,60.2621468 L56.0194175,60.2621468 Z" id="Path" fill="#FFFFFF" fill-rule="nonzero"></path> <path d="M45.631068,60.2621359 C43.1979906,60.2621359 41.2250953,58.2906748 41.2233116,55.8575981 C41.2215304,53.4245213 43.191535,51.4501775 45.6246097,51.4466018 C48.0576845,51.4430359 50.0334758,53.4115887 50.038835,55.8446602 C50.038835,58.2805782 48.0669801,60.2567823 45.631068,60.2621359 Z" id="Path" fill="#FFFFFF" fill-rule="nonzero"></path> <path d="M118.126214,112.01946 C116.336883,112.027278 114.719546,110.954942 114.030252,109.303687 C113.340958,107.652433 113.715873,105.748458 114.979738,104.481803 C116.243602,103.215149 118.146746,102.836036 119.799517,103.521687 C121.452287,104.207338 122.528187,105.822307 122.524282,107.61165 C122.518958,110.040003 120.554549,112.008749 118.126214,112.01946 L118.126214,112.01946 Z" id="Path" fill="#FFFFFF" fill-rule="nonzero"></path> <path d="M107.76699,122.330108 C105.983337,122.334026 104.373128,121.262602 103.687829,119.615848 C103.00253,117.969093 103.37724,116.071643 104.637085,114.809017 C105.89693,113.546391 107.793549,113.167498 109.441811,113.849164 C111.090073,114.53083 112.165049,116.138672 112.165049,117.92233 C112.165049,120.352886 110.19754,122.324743 107.76699,122.330108 Z" id="Path" fill="#FFFFFF" fill-rule="nonzero"></path> <path d="M66.3592233,132.718457 C63.9261518,132.713087 61.957599,130.737296 61.9611649,128.304221 C61.9647406,125.871147 63.9390845,123.901142 66.3721612,123.902923 C68.8052379,123.904707 70.776699,125.877602 70.776699,128.31068 C70.776699,129.481376 70.310981,130.603983 69.4822633,131.430879 C68.6535456,132.257775 67.529917,132.721025 66.3592233,132.718457 L66.3592233,132.718457 Z" id="Path" fill="#FFFFFF" fill-rule="nonzero"></path> <path d="M76.6990291,132.718447 C74.9162538,132.718447 73.309022,131.644529 72.6267834,129.997459 C71.9445448,128.350389 72.3216547,126.45453 73.5822672,125.193918 C74.8428797,123.933305 76.7387389,123.556195 78.3858085,124.238434 C80.0328782,124.920672 81.1067961,126.527904 81.1067961,128.31068 C81.1067961,130.745022 79.1333716,132.718447 76.6990291,132.718447 Z" id="Path" fill="#FFFFFF" fill-rule="nonzero"></path> <path d="M87.0679612,132.718447 C84.6336187,132.718447 82.6601942,130.745022 82.6601942,128.31068 C82.6601942,125.876337 84.6336187,123.902913 87.0679612,123.902913 C89.5023037,123.902913 91.4757282,125.876337 91.4757282,128.31068 C91.4757282,130.745022 89.5023037,132.718447 87.0679612,132.718447 Z" id="Path" fill="#FFFFFF" fill-rule="nonzero"></path> <path d="M107.76699,39.5534088 C105.983337,39.5573268 104.373128,38.4859034 103.687829,36.8391486 C103.00253,35.1923938 103.37724,33.2949445 104.637085,32.0323181 C105.89693,30.7696917 107.793549,30.390799 109.441811,31.0724648 C111.090073,31.7541306 112.165049,33.3619732 112.165049,35.1456311 C112.165049,37.5761871 110.19754,39.5480444 107.76699,39.5534088 L107.76699,39.5534088 Z" id="Path" fill="#FFFFFF" fill-rule="nonzero"></path> <path d="M118.126214,49.9126643 C116.337765,49.9204827 114.721044,48.849198 114.03118,47.1991383 C113.341316,45.5490787 113.714449,43.6458676 114.976296,42.3784491 C116.238144,41.1110306 118.139693,40.7295175 119.792775,41.4121055 C121.445858,42.0946934 122.524272,43.7066802 122.524272,45.4951456 C122.524272,47.9272872 120.558332,49.9019306 118.126214,49.9126643 Z" id="Path" fill="#FFFFFF" fill-rule="nonzero"></path> <path d="M24.961165,70.6116505 C22.5268226,70.6116505 20.5533981,68.638226 20.5533981,66.2038835 C20.5533981,63.769541 22.5268226,61.7961165 24.961165,61.7961165 C27.3955075,61.7961165 29.368932,63.769541 29.368932,66.2038835 C29.3635926,68.6360109 27.3932924,70.606311 24.961165,70.6116505 Z" id="Path" fill="#FFFFFF" fill-rule="nonzero"></path> <path d="M24.961165,80.961165 C22.5268226,80.961165 20.5533981,78.9877405 20.5533981,76.5533981 C20.5533981,74.1190556 22.5268226,72.1456311 24.961165,72.1456311 C27.3955075,72.1456311 29.368932,74.1190556 29.368932,76.5533981 C29.3635926,78.9855254 27.3932924,80.9558256 24.961165,80.961165 Z" id="Path" fill="#FFFFFF" fill-rule="nonzero"></path> <path d="M24.961165,91.3106796 C22.5268226,91.3106796 20.5533981,89.3372551 20.5533981,86.9029126 C20.5533981,84.4685701 22.5268226,82.4951456 24.961165,82.4951456 C27.3955075,82.4951456 29.368932,84.4685701 29.368932,86.9029126 C29.3635926,89.33504 27.3932924,91.3053401 24.961165,91.3106796 Z" id="Path" fill="#FFFFFF" fill-rule="nonzero"></path> <path d="M35.3106796,112.019428 C33.5222165,112.023344 31.9078544,110.948502 31.2216242,109.296926 C30.535394,107.64535 30.9127171,105.742963 32.1773545,104.478325 C33.4419919,103.213688 35.3443791,102.836365 36.9959552,103.522595 C38.6475313,104.208825 39.722373,105.823187 39.7184573,107.61165 C39.7131071,110.043778 37.742807,112.014078 35.3106796,112.019428 L35.3106796,112.019428 Z" id="Path" fill="#FFFFFF" fill-rule="nonzero"></path> <path d="M45.631068,122.330097 C43.1967255,122.330097 41.223301,120.356673 41.223301,117.92233 C41.223301,115.487988 43.1967255,113.514563 45.631068,113.514563 C48.0654105,113.514563 50.038835,115.487988 50.038835,117.92233 C50.0334955,120.354457 48.0631953,122.324758 45.631068,122.330097 L45.631068,122.330097 Z" id="Path" fill="#FFFFFF" fill-rule="nonzero"></path> <path d="M45.631068,39.5533981 C43.8482926,39.5533981 42.2410608,38.4794801 41.5588223,36.8324105 C40.8765837,35.1853408 41.2536935,33.2894817 42.514306,32.0288691 C43.7749186,30.7682566 45.6707777,30.3911468 47.3178474,31.0733854 C48.964917,31.7556239 50.038835,33.3628557 50.038835,35.1456311 C50.0334955,37.5777584 48.0631953,39.5480586 45.631068,39.5533981 Z" id="Path" fill="#FFFFFF" fill-rule="nonzero"></path> <path d="M35.3106796,49.9126321 C33.5230992,49.9165501 31.90935,48.8427612 31.2225486,47.1923785 C30.5357472,45.5419958 30.9112874,43.6403705 32.1739094,42.3749675 C33.4365314,41.1095644 35.3373258,40.7298411 36.9892156,41.4130096 C38.6411054,42.0961781 39.7184466,43.7075609 39.7184466,45.4951456 C39.7184466,47.9310636 37.7465917,49.9072677 35.3106796,49.9126321 Z" id="Path" fill="#FFFFFF" fill-rule="nonzero"></path> <path d="M66.3592233,29.2038835 C63.9261518,29.1985243 61.957599,27.222733 61.9611649,24.7896583 C61.9647406,22.3565835 63.9390845,20.3865789 66.3721612,20.3883602 C68.8052379,20.3901439 70.776699,22.3630391 70.776699,24.7961165 C70.7713454,27.2320286 68.7951413,29.2038835 66.3592233,29.2038835 Z" id="Path" fill="#FFFFFF" fill-rule="nonzero"></path> <path d="M76.6990291,29.2038835 C74.2646866,29.2038835 72.2912621,27.230459 72.2912621,24.7961165 C72.2912621,22.361774 74.2646866,20.3883495 76.6990291,20.3883495 C79.1333716,20.3883495 81.1067961,22.361774 81.1067961,24.7961165 C81.1014566,27.2282439 79.1311565,29.198544 76.6990291,29.2038835 L76.6990291,29.2038835 Z" id="Path" fill="#FFFFFF" fill-rule="nonzero"></path> <path d="M87.0679612,29.2038835 C84.6336187,29.2038835 82.6601942,27.230459 82.6601942,24.7961165 C82.6601942,22.361774 84.6336187,20.3883495 87.0679612,20.3883495 C89.5023037,20.3883495 91.4757282,22.361774 91.4757282,24.7961165 C91.4703887,27.2282439 89.5000885,29.198544 87.0679612,29.2038835 Z" id="Path" fill="#FFFFFF" fill-rule="nonzero"></path> <circle id="Oval" fill="#FFFFFF" fill-rule="nonzero" cx="107.776699" cy="107.61165" r="4.40776699"></circle> <path d="M107.76699,49.9126643 C105.978542,49.9204827 104.36182,48.849198 103.671957,47.1991383 C102.982093,45.5490787 103.355226,43.6458676 104.617073,42.3784491 C105.878921,41.1110306 107.780469,40.7295175 109.433552,41.4121055 C111.086635,42.0946934 112.165049,43.7066802 112.165049,45.4951456 C112.165049,47.9272872 110.199108,49.9019306 107.76699,49.9126643 L107.76699,49.9126643 Z" id="Path" fill="#FFFFFF" fill-rule="nonzero"></path> <path d="M107.76699,70.6116613 C105.983337,70.6155792 104.373128,69.5441558 103.687829,67.897401 C103.00253,66.2506463 103.37724,64.3531969 104.637085,63.0905705 C105.89693,61.8279441 107.793549,61.4490514 109.441811,62.1307172 C111.090073,62.812383 112.165049,64.4202256 112.165049,66.2038835 C112.165049,68.6344395 110.19754,70.6062968 107.76699,70.6116613 L107.76699,70.6116613 Z" id="Path" fill="#FFFFFF" fill-rule="nonzero"></path> <circle id="Oval" fill="#FFFFFF" fill-rule="nonzero" cx="107.776699" cy="76.5533981" r="4.40776699"></circle> <path d="M107.76699,91.3106904 C105.983337,91.3146084 104.373128,90.2431849 103.687829,88.5964302 C103.00253,86.9496754 103.37724,85.052226 104.637085,83.7895996 C105.89693,82.5269732 107.793549,82.1480805 109.441811,82.8297463 C111.090073,83.5114121 112.165049,85.1192547 112.165049,86.9029126 C112.165049,89.3334686 110.19754,91.305326 107.76699,91.3106904 Z" id="Path" fill="#FFFFFF" fill-rule="nonzero"></path> <path d="M128.475728,70.6116505 C126.041386,70.6116505 124.067961,68.638226 124.067961,66.2038835 C124.067961,63.769541 126.041386,61.7961165 128.475728,61.7961165 C130.910071,61.7961165 132.883495,63.769541 132.883495,66.2038835 C132.878156,68.6360109 130.907856,70.606311 128.475728,70.6116505 Z" id="Path" fill="#FFFFFF" fill-rule="nonzero"></path> <path d="M128.475728,80.961165 C126.041386,80.961165 124.067961,78.9877405 124.067961,76.5533981 C124.067961,74.1190556 126.041386,72.1456311 128.475728,72.1456311 C130.910071,72.1456311 132.883495,74.1190556 132.883495,76.5533981 C132.883495,78.9877405 130.910071,80.961165 128.475728,80.961165 Z" id="Path" fill="#FFFFFF" fill-rule="nonzero"></path> <path d="M128.475728,91.3106796 C126.041386,91.3106796 124.067961,89.3372551 124.067961,86.9029126 C124.067961,84.4685701 126.041386,82.4951456 128.475728,82.4951456 C130.910071,82.4951456 132.883495,84.4685701 132.883495,86.9029126 C132.883495,89.3372551 130.910071,91.3106796 128.475728,91.3106796 Z" id="Path" fill="#FFFFFF" fill-rule="nonzero"></path> <path d="M118.126214,70.6116613 C116.34256,70.6155792 114.732351,69.5441558 114.047052,67.897401 C113.361754,66.2506463 113.736463,64.3531969 114.996308,63.0905705 C116.256154,61.8279441 118.152772,61.4490514 119.801034,62.1307172 C121.449296,62.812383 122.524272,64.4202256 122.524272,66.2038835 C122.518958,68.6322361 120.554549,70.6009822 118.126214,70.6116613 Z" id="Path" fill="#FFFFFF" fill-rule="nonzero"></path> <path d="M118.126214,80.9611758 C116.34256,80.9650938 114.732351,79.8936704 114.047052,78.2469156 C113.361754,76.6001608 113.736463,74.7027114 114.996308,73.4400851 C116.256154,72.1774587 118.152772,71.798566 119.801034,72.4802318 C121.449296,73.1618976 122.524272,74.7697402 122.524272,76.5533981 C122.518958,78.9817507 120.554549,80.9504968 118.126214,80.9611758 Z" id="Path" fill="#FFFFFF" fill-rule="nonzero"></path> <path d="M118.126214,91.3106904 C116.34256,91.3146084 114.732351,90.2431849 114.047052,88.5964302 C113.361754,86.9496754 113.736463,85.052226 114.996308,83.7895996 C116.256154,82.5269732 118.152772,82.1480805 119.801034,82.8297463 C121.449296,83.5114121 122.524272,85.1192547 122.524272,86.9029126 C122.518958,89.3312653 120.554549,91.3000113 118.126214,91.3106904 Z" id="Path" fill="#FFFFFF" fill-rule="nonzero"></path> <path d="M118.126214,101.669914 C116.34256,101.673832 114.732351,100.602408 114.047052,98.9556535 C113.361754,97.3088987 113.736463,95.4114493 114.996308,94.1488229 C116.256154,92.8861965 118.152772,92.5073038 119.801034,93.1889696 C121.449296,93.8706354 122.524272,95.478478 122.524272,97.2621359 C122.518958,99.6904886 120.554549,101.659235 118.126214,101.669914 Z" id="Path" fill="#FFFFFF" fill-rule="nonzero"></path> <path d="M97.4174757,122.330108 C94.9844043,122.324738 93.0158514,120.348947 93.0194174,117.915872 C93.0229931,115.482797 94.9973369,113.512793 97.4304136,113.514574 C99.8634903,113.516357 101.834951,115.489253 101.834951,117.92233 C101.834951,119.093027 101.369233,120.215633 100.540516,121.04253 C99.7117981,121.869426 98.5881695,122.332676 97.4174757,122.330108 Z" id="Path" fill="#FFFFFF" fill-rule="nonzero"></path> <path d="M66.3592233,122.330097 C63.9261518,122.324738 61.957599,120.348947 61.9611649,117.915872 C61.9647406,115.482797 63.9390845,113.512793 66.3721612,113.514574 C68.8052379,113.516357 70.776699,115.489253 70.776699,117.92233 C70.7713454,120.358242 68.7951413,122.330097 66.3592233,122.330097 Z" id="Path" fill="#FFFFFF" fill-rule="nonzero"></path> <path d="M76.6990291,122.330097 C74.2646866,122.330097 72.2912621,120.356673 72.2912621,117.92233 C72.2912621,115.487988 74.2646866,113.514563 76.6990291,113.514563 C79.1333716,113.514563 81.1067961,115.487988 81.1067961,117.92233 C81.1014566,120.354457 79.1311565,122.324758 76.6990291,122.330097 L76.6990291,122.330097 Z" id="Path" fill="#FFFFFF" fill-rule="nonzero"></path> <path d="M87.0679612,122.330097 C84.6336187,122.330097 82.6601942,120.356673 82.6601942,117.92233 C82.6601942,115.487988 84.6336187,113.514563 87.0679612,113.514563 C89.5023037,113.514563 91.4757282,115.487988 91.4757282,117.92233 C91.4703887,120.354457 89.5000885,122.324758 87.0679612,122.330097 L87.0679612,122.330097 Z" id="Path" fill="#FFFFFF" fill-rule="nonzero"></path> <path d="M97.4174757,39.5534088 C94.9844043,39.5480389 93.0158514,37.5722476 93.0194174,35.1391728 C93.0229931,32.7060981 94.9973369,30.7360935 97.4304136,30.7378747 C99.8634903,30.7396584 101.834951,32.7125537 101.834951,35.1456311 C101.834951,36.3163276 101.369233,37.4389343 100.540516,38.2658306 C99.7117981,39.0927269 98.5881695,39.5559767 97.4174757,39.5534088 L97.4174757,39.5534088 Z" id="Path" fill="#FFFFFF" fill-rule="nonzero"></path> <path d="M118.126214,60.2621468 C115.69188,60.267492 113.714119,58.2984186 113.708748,55.8640848 C113.703399,53.4297509 115.672469,51.4519872 118.106803,51.4466124 C120.541137,51.4412594 122.518904,53.4103264 122.524272,55.8446602 C122.524272,58.2768017 120.558332,60.2514452 118.126214,60.2621468 L118.126214,60.2621468 Z" id="Path" fill="#FFFFFF" fill-rule="nonzero"></path> <path d="M35.3106796,70.6116505 C32.8763371,70.6116505 30.9029126,68.638226 30.9029126,66.2038835 C30.9029126,63.769541 32.8763371,61.7961165 35.3106796,61.7961165 C37.7450221,61.7961165 39.7184466,63.769541 39.7184466,66.2038835 C39.7131071,68.6360109 37.742807,70.606311 35.3106796,70.6116505 Z" id="Path" fill="#FFFFFF" fill-rule="nonzero"></path> <path d="M35.3106796,80.961165 C32.8763371,80.961165 30.9029126,78.9877405 30.9029126,76.5533981 C30.9029126,74.1190556 32.8763371,72.1456311 35.3106796,72.1456311 C37.7450221,72.1456311 39.7184466,74.1190556 39.7184466,76.5533981 C39.7184466,78.9877405 37.7450221,80.961165 35.3106796,80.961165 Z" id="Path" fill="#FFFFFF" fill-rule="nonzero"></path> <path d="M35.3106796,91.3106796 C32.8763371,91.3106796 30.9029126,89.3372551 30.9029126,86.9029126 C30.9029126,84.4685701 32.8763371,82.4951456 35.3106796,82.4951456 C37.7450221,82.4951456 39.7184466,84.4685701 39.7184466,86.9029126 C39.7184466,89.3372551 37.7450221,91.3106796 35.3106796,91.3106796 Z" id="Path" fill="#FFFFFF" fill-rule="nonzero"></path> <path d="M35.3106796,101.669903 C32.8763371,101.669903 30.9029126,99.6964784 30.9029126,97.2621359 C30.9029126,94.8277934 32.8763371,92.8543689 35.3106796,92.8543689 C37.7450221,92.8543689 39.7184466,94.8277934 39.7184466,97.2621359 C39.7131071,99.6942633 37.742807,101.664563 35.3106796,101.669903 Z" id="Path" fill="#FFFFFF" fill-rule="nonzero"></path> <path d="M45.631068,112.019428 C43.8426049,112.023344 42.2282427,110.948502 41.5420126,109.296926 C40.8557824,107.64535 41.2331054,105.742963 42.4977428,104.478325 C43.7623802,103.213688 45.6647674,102.836365 47.3163436,103.522595 C48.9679197,104.208825 50.0427613,105.823187 50.0388457,107.61165 C50.0334955,110.043778 48.0631953,112.014078 45.631068,112.019428 L45.631068,112.019428 Z" id="Path" fill="#FFFFFF" fill-rule="nonzero"></path> <path d="M56.0194175,122.330108 C54.2357639,122.334026 52.6255548,121.262602 51.9402561,119.615848 C51.2549575,117.969093 51.6296671,116.071643 52.8895124,114.809017 C54.1493576,113.546391 56.0459762,113.167498 57.694238,113.849164 C59.3424999,114.53083 60.4174757,116.138672 60.4174757,117.92233 C60.4121621,120.350683 58.4477525,122.319429 56.0194175,122.330108 L56.0194175,122.330108 Z" id="Path" fill="#FFFFFF" fill-rule="nonzero"></path> <path d="M56.0194175,39.5534088 C54.2357639,39.5573268 52.6255548,38.4859034 51.9402561,36.8391486 C51.2549575,35.1923938 51.6296671,33.2949445 52.8895124,32.0323181 C54.1493576,30.7696917 56.0459762,30.390799 57.694238,31.0724648 C59.3424999,31.7541306 60.4174757,33.3619732 60.4174757,35.1456311 C60.4121621,37.5739837 58.4477525,39.5427298 56.0194175,39.5534088 Z" id="Path" fill="#FFFFFF" fill-rule="nonzero"></path> <path d="M45.631068,49.9126321 C43.8434876,49.9165501 42.2297383,48.8427612 41.5429369,47.1923785 C40.8561355,45.5419958 41.2316758,43.6403705 42.4942977,42.3749675 C43.7569197,41.1095644 45.6577141,40.7298411 47.3096039,41.4130096 C48.9614937,42.0961781 50.038835,43.7075609 50.038835,45.4951456 C50.038835,47.9310636 48.0669801,49.9072677 45.631068,49.9126321 Z" id="Path" fill="#FFFFFF" fill-rule="nonzero"></path> <path d="M35.3106796,60.2621359 C32.8776023,60.2621359 30.904707,58.2906748 30.9029233,55.8575981 C30.901142,53.4245213 32.8711466,51.4501775 35.3042214,51.4466018 C37.7372961,51.4430359 39.7130874,53.4115887 39.7184466,55.8446602 C39.7184466,58.2805782 37.7465917,60.2567823 35.3106796,60.2621359 Z" id="Path" fill="#FFFFFF" fill-rule="nonzero"></path> <path d="M66.3592233,39.5533981 C63.9261518,39.5480389 61.957599,37.5722476 61.9611649,35.1391728 C61.9647406,32.7060981 63.9390845,30.7360935 66.3721612,30.7378747 C68.8052379,30.7396584 70.776699,32.7125537 70.776699,35.1456311 C70.7713454,37.5815432 68.7951413,39.5533981 66.3592233,39.5533981 Z" id="Path" fill="#FFFFFF" fill-rule="nonzero"></path> <path d="M76.6990291,39.5533981 C74.9162538,39.5533981 73.309022,38.4794801 72.6267834,36.8324105 C71.9445448,35.1853408 72.3216547,33.2894817 73.5822672,32.0288691 C74.8428797,30.7682566 76.7387389,30.3911468 78.3858085,31.0733854 C80.0328782,31.7556239 81.1067961,33.3628557 81.1067961,35.1456311 C81.1014566,37.5777584 79.1311565,39.5480586 76.6990291,39.5533981 L76.6990291,39.5533981 Z" id="Path" fill="#FFFFFF" fill-rule="nonzero"></path> <path d="M87.0679612,39.5533981 C84.6336187,39.5533981 82.6601942,37.5799736 82.6601942,35.1456311 C82.6601942,32.7112886 84.6336187,30.7378641 87.0679612,30.7378641 C89.5023037,30.7378641 91.4757282,32.7112886 91.4757282,35.1456311 C91.4703887,37.5777584 89.5000885,39.5480586 87.0679612,39.5533981 Z" id="Path" fill="#FFFFFF" fill-rule="nonzero"></path> <path d="M66.3592233,49.9126214 C64.5725212,49.9126214 62.9617492,48.836338 62.2780079,47.1856404 C61.5942666,45.5349429 61.9722071,43.6349078 63.2355963,42.3715186 C64.4989855,41.1081294 66.3990205,40.7301889 68.0497181,41.4139302 C69.7004156,42.0976715 70.776699,43.7084435 70.776699,45.4951456 C70.776699,47.9348501 68.7989278,49.9126214 66.3592233,49.9126214 Z" id="Path" fill="#FFFFFF" fill-rule="nonzero"></path> <path d="M76.6990291,49.9126321 C74.9114487,49.9165501 73.2976995,48.8427612 72.6108981,47.1923785 C71.9240967,45.5419958 72.2996369,43.6403705 73.5622589,42.3749675 C74.8248809,41.1095644 76.7256753,40.7298411 78.3775651,41.4130096 C80.0294549,42.0961781 81.1067961,43.7075609 81.1067961,45.4951456 C81.1067961,47.9310636 79.1349412,49.9072677 76.6990291,49.9126321 L76.6990291,49.9126321 Z" id="Path" fill="#FFFFFF" fill-rule="nonzero"></path> <path d="M87.0679612,49.9126321 C85.2803808,49.9165501 83.6666315,48.8427612 82.9798301,47.1923785 C82.2930287,45.5419958 82.668569,43.6403705 83.9311909,42.3749675 C85.1938129,41.1095644 87.0946073,40.7298411 88.7464971,41.4130096 C90.3983869,42.0961781 91.4757282,43.7075609 91.4757282,45.4951456 C91.4757282,47.9310636 89.5038733,49.9072677 87.0679612,49.9126321 Z" id="Path" fill="#FFFFFF" fill-rule="nonzero"></path> <polygon id="Path" fill="#FFFFFF" fill-rule="nonzero" points="169.038835 132.553398 163.106796 124.61165 157.15534 132.553398 154.330097 132.553398 161.601942 122.990291 154.747573 113.902913 157.572816 113.902913 163.106796 121.359223 168.621359 113.893204 171.446602 113.893204 164.650485 122.951456 171.893204 132.543689"></polygon> <path d="M173.514563,125.786408 C173.514563,121.902913 176.087379,118.708738 180.194175,118.708738 C184.300971,118.708738 186.883495,121.873786 186.883495,125.786408 C186.883495,129.699029 184.31068,132.893204 180.194175,132.893204 C176.07767,132.893204 173.514563,129.708738 173.514563,125.786408 Z M184.669903,125.786408 C184.669903,123.048544 183.07767,120.582524 180.194175,120.582524 C177.31068,120.582524 175.68932,123.048544 175.68932,125.786408 C175.68932,128.524272 177.31068,131.019417 180.194175,131.019417 C183.07767,131.019417 184.669903,128.563107 184.669903,125.786408 Z" id="Shape" fill="#FFFFFF" fill-rule="nonzero"></path> <path d="M188.699029,131.15534 C189.951456,131.15534 190.737864,129.708738 191.271845,125.708738 L192.135922,119.048544 L201.533981,119.048544 L201.533981,132.553398 L199.436893,132.553398 L199.436893,120.902913 L193.980583,120.902913 L193.368932,125.970874 C192.757282,131 191.300971,132.902913 188.699029,132.902913 L188.699029,131.15534 Z" id="Path" fill="#FFFFFF" fill-rule="nonzero"></path> <path d="M204.135922,130.825243 C205.398058,130.601942 206.174757,129.708738 206.708738,125.708738 L207.572816,119.048544 L216.970874,119.048544 L216.970874,130.699029 L218.543689,130.699029 L218.543689,135.990291 L216.446602,135.990291 L216.446602,132.543689 L206.23301,132.543689 L206.23301,135.990291 L204.135922,135.990291 L204.135922,130.825243 Z M208.805825,125.970874 C208.475728,128.514563 207.834951,129.941748 206.864078,130.718447 L214.893204,130.718447 L214.893204,120.893204 L209.417476,120.893204 L208.805825,125.970874 Z" id="Shape" fill="#FFFFFF" fill-rule="nonzero"></path> <polygon id="Path" fill="#FFFFFF" fill-rule="nonzero" points="221.417476 132.553398 221.417476 119.048544 223.514563 119.048544 223.514563 129.368932 230.592233 119.048544 232.660194 119.048544 232.660194 132.553398 230.563107 132.553398 230.563107 122.038835 223.436893 132.553398"></polygon> <polygon id="Path" fill="#FFFFFF" fill-rule="nonzero" points="236.893204 132.553398 236.893204 119.048544 238.990291 119.048544 238.990291 124.669903 246.038835 124.669903 246.038835 119.048544 248.135922 119.048544 248.135922 132.553398 246.038835 132.553398 246.038835 126.514563 238.990291 126.514563 238.990291 132.553398"></polygon> <polygon id="Path" fill="#FFFFFF" fill-rule="nonzero" points="261.747573 120.893204 254.368932 120.893204 254.368932 132.543689 252.271845 132.543689 252.271845 119.048544 261.728155 119.048544"></polygon> </g> </g> </g> </svg> 